{"title":"The Vampire Diaries S02E17 HDTV_JHW.mp4","uid":6303377,"size":418219164,"categoryP":"video","categoryS":"hd___tv_shows","magnet":"?xt=urn:btih:78b28851e3734d836df4ae7b79151066fb0c249f&amp;dn=The+Vampire+Diaries+S02E17+HDTV_JHW.mp4&amp;tr=udp%3A%2F%2Ftracker.openbittorrent.com%3A80&amp;tr=udp%3A%2F%2Fopen.demonii.com%3A1337&amp;tr=udp%3A%2F%2Ftracker.coppersurfer.tk%3A6969&amp;tr=udp%3A%2F%2Fexodus.desync.com%3A6969","seeders":0,"leechers":0,"uploader":"jameshotwire","files":1,"time":1302237819,"description":"Know Thy Enemy (#2.17) \n\nElena and Alaric both lash out at John when Isobel's unexpected arrival leaves Jenna devastated. Bonnie works with Damon and Jeremy to find the spell they'll need to harness her ancestors' power. A heartbroken Caroline doesn't know what to do about Matt. Stefan and Damon realize they have a new secret weapon.\n\nGeneral\nComplete name                    : The Vampire Diaries S02E17 HDTV_JHW.mp4\nFormat                           : MPEG-4\nFormat profile                   : Base Media / Version 2\nCodec ID                         : mp42\nFile size                        : 399 MiB\nDuration                         : 41mn 36s\nOverall bit rate                 : 1 340 Kbps\nEncoded date                     : UTC 2011-04-07 02:07:44\nTagged date                      : UTC 2011-04-07 02:07:44\nWriting library                  : AVS \n\nVideo\nID                               : 1\nFormat                           : AVC\nFormat/Info                      : Advanced Video Codec\nFormat profile                   : &lt;a class=&quot;__cf_email__&quot; href=&quot;/cdn-cgi/l/email-protection&quot; data-cfemail=&quot;eda08c8483ada1d8c3dc&quot;&gt;[email&amp;#160;protected]&lt;/a&gt;&lt;script cf-hash='f9e31' type=&quot;text/javascript&quot;&gt;\n/* &lt;![CDATA[ */!function(){try{var t=&quot;currentScript&quot;in document?document.currentScript:function(){for(var t=document.getElementsByTagName(&quot;script&quot;),e=t.length;e--;)if(t[e].getAttribute(&quot;cf-hash&quot;))return t[e]}();if(t&amp;&amp;t.previousSibling){var e,r,n,i,c=t.previousSibling,a=c.getAttribute(&quot;data-cfemail&quot;);if(a){for(e=&quot;&quot;,r=parseInt(a.substr(0,2),16),n=2;a.length-n;n+=2)i=parseInt(a.substr(n,2),16)^r,e+=String.fromCharCode(i);e=document.createTextNode(e),c.parentNode.replaceChild(e,c)}}}catch(u){}}();/* ]]&gt; */&lt;/script&gt;\nFormat settings, CABAC           : Yes\nFormat settings, ReFrames        : 2 frames\nCodec ID                         : avc1\nCodec ID/Info                    : Advanced Video Coding\nDuration                         : 41mn 36s\nBit rate mode                    : Variable\nBit rate                         : 1 206 Kbps\nWidth                            : 720 pixels\nHeight                           : 400 pixels\nDisplay aspect ratio             : 16:9\nFrame rate mode                  : Constant\nFrame rate                       : 29.970 fps\nColor space                      : YUV\nChroma subsampling               : 4:2:0\nBit depth                        : 8 bits\nScan type                        : Progressive\nBits/(Pixel*Frame)               : 0.140\nStream size                      : 359 MiB (90%)\nLanguage                         : English\n\nAudio\nID                               : 2\nFormat                           : AAC\nFormat/Info                      : Advanced Audio Codec\nFormat profile                   : LC\nCodec ID                         : 40\nDuration                         : 41mn 36s\nBit rate mode                    : Constant\nBit rate                         : 128 Kbps\nChannel(s)                       : 2 channels\nChannel positions                : Front: L R\nSampling rate                    : 48.0 KHz\nCompression mode                 : Lossy\nStream size                      : 37.3 MiB (9%)\nLanguage                         : English\nEncoded date                     : UTC 2011-04-07 02:07:44\n &lt;a href=&quot;\nhttp://img534.imageshack.us/img534/3617/vlcsnap2011040722h11m57.png&quot; rel=&quot;nofollow&quot; target=&quot;_NEW&quot;&gt;\nhttp://img534.imageshack.us/img534/3617/vlcsnap2011040722h11m57.png&lt;/a&gt; &lt;a href=&quot;\nhttp://img862.imageshack.us/img862/4950/vlcsnap2011040722h13m08.png&quot; rel=&quot;nofollow&quot; target=&quot;_NEW&quot;&gt;\nhttp://img862.imageshack.us/img862/4950/vlcsnap2011040722h13m08.png&lt;/a&gt; &lt;a href=&quot;\nhttp://img714.imageshack.us/img714/535/vlcsnap2011040722h13m14.png&quot; rel=&quot;nofollow&quot; target=&quot;_NEW&quot;&gt;\nhttp://img714.imageshack.us/img714/535/vlcsnap2011040722h13m14.png&lt;/a&gt; &lt;a href=&quot;\nhttp://img850.imageshack.us/img850/9818/vlcsnap2011040722h14m38.png&quot; rel=&quot;nofollow&quot; target=&quot;_NEW&quot;&gt;\nhttp://img850.imageshack.us/img850/9818/vlcsnap2011040722h14m38.png&lt;/a&gt;","torrent":{"xt":"urn:btih:78b28851e3734d836df4ae7b79151066fb0c249f","amp;dn":"The+Vampire+Diaries+S02E17+HDTV_JHW.mp4","amp;tr":["udp%3A%2F%2Ftracker.openbittorrent.com%3A80","udp%3A%2F%2Fopen.demonii.com%3A1337","udp%3A%2F%2Ftracker.coppersurfer.tk%3A6969","udp%3A%2F%2Fexodus.desync.com%3A6969"],"infoHash":"78b28851e3734d836df4ae7b79151066fb0c249f","infoHashBuffer":{"type":"Buffer","data":[120,178,136,81,227,115,77,131,109,244,174,123,121,21,16,102,251,12,36,159]},"announce":[],"urlList":[]}}